<svg version="1.1" xmlns="http://www.w3.org/2000/svg" xmlns:xlink="http://www.w3.org/1999/xlink" viewBox="0 0 297.653 91" enable-background="new 0 0 297.653 91" xml:space="preserve">
<g>
	<g>
		<g>
			<g>
				<path fill="#040000" d="M34.25,20.498c1.55,0.45,2,1.6,2,5.7V51.15c0,5.05-1.45,6.3-2.65,7.05c-2.4-0.5-3.601-0.75-5-0.75
					c-1.75,0-2.75,1.25-2.75,2.3c0,0.95,0.7,1.1,2,1.1c6.45,0,12.451-6.201,12.451-15.801V26.198c0-4.1,0.45-5.25,2-5.7v-0.65h-8.05
					V20.498z"/>
				<path fill="#040000" d="M84.852,20.498c1.7,0.35,2,2.05,0.8,5.3l-8.7,24.001l-6.75-16.351l2.8-7.65c1.4-3.8,2.6-4.85,4-5.3
					v-0.65h-5.5v0.65c1.65,0.35,1.85,2,0.6,5.3l-2.4,6.5L67,25.698c-1.55-3.75-1.95-4.75-0.45-5.2v-0.65H58.9v0.65
					c1.1,0.45,2.3,1.45,3.8,5.25l4.55,11.05L61.9,49.9l-9.251-24.102c-1.45-3.85-1.8-4.85-0.25-5.3v-0.65h-7.75v0.65
					c1.1,0.45,2.25,1.45,3.7,5.3L59.4,54.85h1.4l6.9-16.951l6.95,16.951h1.4l10.451-29.052c1.4-3.8,2.601-4.85,4-5.3v-0.65h-5.65
					V20.498z"/>
				<path fill="#040000" d="M118.1,54.1h-6.5c-1.45,0-2.25-0.8-2.25-2.25V36.499h6.4c5.701,0,7.15,1.15,7.75,3.4h0.6v-7.551h-0.6
					c-0.6,2.25-2.05,3.4-7.75,3.4h-6.4V20.598h7.351c5.1,0,8.05,1.5,9.801,5.9l0.55-0.15l-0.55-6.5h-23.251v0.65
					c1.5,0.45,2,1.6,2,5.7V48.5c0,4.101-0.5,5.25-2,5.701v0.65H127.9l0.4-6.65l-0.55-0.1C125.95,52.75,122.9,54.1,118.1,54.1z"/>
				<path fill="#040000" d="M154.5,29.849h-5.15v0.65c1.75,0.35,1.95,2,0.7,5.3l-5.9,15.401l-6.55-15.501
					c-1.601-3.75-2.001-4.75-0.501-5.2v-0.65h-7.2v0.65c1.05,0.45,1.95,1.45,3.5,5.2l8,19.151h2.101l7.351-19.051
					c1.45-3.85,2.25-4.85,3.65-5.3V29.849z"/>
				<path fill="#040000" d="M168.799,52.2c-6.501,0-10.751-4.7-10.751-11.55c0-0.8,0.051-1.55,0.15-2.3h19.551
					c-0.15-4.75-3.8-8.851-10.101-8.851c-7,0-13.15,5.45-13.15,13.601c0,8.25,6.351,12.25,11.851,12.25
					c5.35,0,9.25-3.55,11.801-7.05l-0.45-0.45C175.4,50.45,172.65,52.2,168.799,52.2z M166,30.398c4.55,0,7.25,3.95,7.75,7.301
					h-15.4C159.148,33.499,161.75,30.349,166,30.398z"/>
				<path fill="#040000" d="M196.398,29.499c-2.4,0-4.15,0.65-5.699,1.8c-1.501,1.1-2.852,2.8-3.65,4.75v-6.25l-0.451-0.35
					l-5.449,2.4v0.55c1.35,0.6,2,1.1,2,4.6v11.5c0,4.101-0.45,5.25-2,5.701v0.65h7.9V54.2c-1.551-0.45-2-1.6-2-5.701v-9.95h0.049
					c0.15-2.4,1.951-5.201,3.4-6.25c2.951,0.85,4.9,1.4,6.251,1.4c1.8,0,2.899-1.75,2.899-2.85
					C199.648,29.999,198.398,29.499,196.398,29.499z"/>
				<path fill="#040000" d="M210.348,54.2c-1.55-0.45-2.001-1.6-2.001-5.701V14.798l-0.449-0.35l-5.451,2.4v0.55
					c1.351,0.6,2.001,1.1,2.001,4.6V48.5c0,4.101-0.5,5.25-2.001,5.701v0.65h7.901V54.2z"/>
				<path fill="#040000" d="M231.798,30.499c1.75,0.35,1.852,1.95,0.451,5.2L226.099,50l-6.15-14.301c-1.6-3.75-2-4.75-0.5-5.2
					v-0.65h-7.551v0.65c1.051,0.45,2.301,1.45,3.85,5.2l8.201,19.251c-1.25,2.6-2.801,5.05-4.551,6.55c-2.299-0.4-5-1.15-6.3-1.15
					c-1.851,0-3.101,1.8-3.101,2.75c0,0.8,1.45,1.45,3.4,1.4c3.201-0.05,7.6-1.1,11.852-10.9L233,35.699
					c1.65-3.75,2.949-4.75,4.35-5.2v-0.65h-5.551V30.499z"/>
				<path fill="#040000" d="M263.099,48.5v-10.3c0-5.851-3-8.701-7.9-8.701c-3.85,0-7.701,2.25-10.602,4.6v-4.3l-0.398-0.35
					l-5.502,2.4v0.55c1.4,0.6,2.002,1.1,2.002,4.6v11.5c0,4.101-0.451,5.25-2.002,5.701v0.65h7.902V54.2
					c-1.502-0.45-2.002-1.6-2.002-5.701V34.899c2.551-2.1,5.252-3.75,8.002-3.75c4.4,0,6.6,2.851,6.6,8.051v9.3
					c0,4.101-0.449,5.25-2,5.701v0.65h7.9V54.2C263.548,53.75,263.099,52.6,263.099,48.5z"/>
			</g>
		</g>
	</g>
</g>
<g>
	<g>
		<g>
			<g>
				<path fill="#040000" d="M80.831,73.438h-2.52v7.807h1.02v-3.259h1.5c0.911,0,1.588-0.214,2.033-0.644
					c0.444-0.429,0.667-0.969,0.667-1.618c0-0.672-0.229-1.221-0.689-1.646C82.382,73.65,81.711,73.438,80.831,73.438z
					 M82.085,76.775c-0.269,0.247-0.687,0.37-1.254,0.37h-1.5v-2.867h1.5c1.105,0,1.658,0.481,1.658,1.445
					C82.488,76.178,82.354,76.529,82.085,76.775z"/>
				<path fill="#040000" d="M92.361,77.156c0.31-0.411,0.465-0.885,0.465-1.422c0-0.44-0.101-0.833-0.302-1.176
					c-0.202-0.343-0.506-0.616-0.913-0.817c-0.407-0.202-0.905-0.303-1.495-0.303h-2.52v7.807h1.02v-3.192h1.232l1.859,3.192h1.221
					l-1.96-3.271C91.586,77.839,92.051,77.567,92.361,77.156z M88.615,77.234v-2.957h1.5c0.56,0,0.976,0.127,1.249,0.381
					c0.272,0.254,0.409,0.612,0.409,1.075c0,0.456-0.138,0.819-0.415,1.092c-0.276,0.273-0.69,0.409-1.243,0.409H88.615z"/>
				<path fill="#040000" d="M102.737,73.858c-0.597-0.34-1.262-0.51-1.994-0.51c-0.724,0-1.385,0.17-1.982,0.51
					c-0.598,0.34-1.07,0.814-1.417,1.422s-0.521,1.293-0.521,2.055s0.174,1.447,0.521,2.055s0.819,1.083,1.417,1.422
					c0.597,0.34,1.258,0.51,1.982,0.51c0.732,0,1.396-0.17,1.994-0.51c0.598-0.34,1.068-0.812,1.412-1.417
					c0.343-0.604,0.515-1.292,0.515-2.061s-0.172-1.456-0.515-2.061C103.805,74.67,103.335,74.198,102.737,73.858z M103.247,78.971
					c-0.25,0.47-0.594,0.833-1.03,1.086c-0.437,0.254-0.928,0.38-1.473,0.38c-0.545,0-1.036-0.126-1.473-0.38
					c-0.437-0.254-0.78-0.616-1.03-1.086c-0.25-0.471-0.375-1.016-0.375-1.635c0-0.627,0.125-1.174,0.375-1.641
					c0.25-0.466,0.592-0.827,1.025-1.081c0.433-0.254,0.926-0.381,1.478-0.381c0.553,0,1.045,0.127,1.479,0.381
					s0.775,0.614,1.025,1.081c0.25,0.467,0.375,1.014,0.375,1.641C103.622,77.955,103.497,78.5,103.247,78.971z"/>
				<path fill="#040000" d="M113.45,73.914c-0.624-0.317-1.361-0.476-2.212-0.476h-2.431v7.807h2.431
					c0.851,0,1.588-0.155,2.212-0.465c0.623-0.31,1.101-0.758,1.434-1.344c0.332-0.586,0.499-1.279,0.499-2.078
					s-0.167-1.494-0.499-2.083C114.551,74.685,114.073,74.231,113.45,73.914z M113.545,79.604c-0.53,0.534-1.299,0.801-2.307,0.801
					h-1.411v-6.138h1.411c1,0,1.768,0.272,2.301,0.817c0.534,0.545,0.801,1.303,0.801,2.274
					C114.34,78.321,114.075,79.07,113.545,79.604z"/>
				<path fill="#040000" d="M124.364,78.377c0,0.694-0.17,1.209-0.509,1.545c-0.34,0.336-0.809,0.504-1.406,0.504
					c-0.605,0-1.077-0.168-1.417-0.504s-0.509-0.851-0.509-1.545v-4.939h-1.02v4.928c0,0.649,0.129,1.197,0.387,1.641
					c0.257,0.444,0.608,0.775,1.053,0.991c0.444,0.217,0.942,0.325,1.495,0.325c0.552,0,1.051-0.108,1.495-0.325
					c0.444-0.216,0.797-0.547,1.059-0.991c0.261-0.444,0.392-0.991,0.392-1.641v-4.928h-1.02V78.377z"/>
				<path fill="#040000" d="M131.935,74.614c0.434-0.254,0.922-0.381,1.468-0.381c0.567,0,1.054,0.127,1.462,0.381
					c0.406,0.254,0.719,0.616,0.935,1.086h1.221c-0.291-0.754-0.754-1.336-1.389-1.747s-1.378-0.616-2.229-0.616
					c-0.725,0-1.384,0.172-1.977,0.515c-0.594,0.344-1.062,0.82-1.406,1.428c-0.343,0.608-0.515,1.293-0.515,2.055
					s0.172,1.445,0.515,2.049c0.344,0.605,0.812,1.077,1.406,1.417c0.593,0.34,1.252,0.51,1.977,0.51
					c0.851,0,1.594-0.204,2.229-0.61c0.635-0.407,1.098-0.984,1.389-1.73h-1.221c-0.216,0.47-0.528,0.831-0.935,1.081
					c-0.408,0.25-0.895,0.375-1.462,0.375c-0.546,0-1.034-0.127-1.468-0.381c-0.433-0.254-0.772-0.614-1.019-1.081
					c-0.246-0.466-0.369-1.01-0.369-1.629c0-0.627,0.123-1.174,0.369-1.641C131.163,75.228,131.502,74.868,131.935,74.614z"/>
				<polygon fill="#040000" points="140.851,74.267 142.99,74.267 142.99,81.244 144.009,81.244 144.009,74.267 146.136,74.267 
					146.136,73.438 140.851,73.438 				"/>
				<path fill="#040000" d="M155.724,73.858c-0.598-0.34-1.262-0.51-1.994-0.51c-0.724,0-1.385,0.17-1.981,0.51
					c-0.598,0.34-1.069,0.814-1.417,1.422s-0.521,1.293-0.521,2.055s0.174,1.447,0.521,2.055s0.819,1.083,1.417,1.422
					c0.597,0.34,1.258,0.51,1.981,0.51c0.732,0,1.396-0.17,1.994-0.51s1.068-0.812,1.412-1.417c0.343-0.604,0.515-1.292,0.515-2.061
					s-0.172-1.456-0.515-2.061C156.792,74.67,156.322,74.198,155.724,73.858z M156.234,78.971c-0.25,0.47-0.594,0.833-1.03,1.086
					s-0.928,0.38-1.474,0.38c-0.545,0-1.035-0.126-1.473-0.38c-0.436-0.254-0.779-0.616-1.029-1.086
					c-0.251-0.471-0.375-1.016-0.375-1.635c0-0.627,0.124-1.174,0.375-1.641c0.25-0.466,0.592-0.827,1.024-1.081
					s0.926-0.381,1.478-0.381c0.553,0,1.046,0.127,1.479,0.381c0.434,0.254,0.775,0.614,1.025,1.081
					c0.25,0.467,0.375,1.014,0.375,1.641C156.609,77.955,156.484,78.5,156.234,78.971z"/>
				<path fill="#040000" d="M165.726,77.307c-0.314-0.138-0.729-0.278-1.244-0.42c-0.425-0.119-0.756-0.226-0.99-0.319
					c-0.235-0.093-0.434-0.23-0.594-0.409s-0.241-0.41-0.241-0.694c0-0.396,0.135-0.704,0.403-0.924
					c0.27-0.22,0.616-0.331,1.041-0.331c0.456,0,0.822,0.114,1.098,0.342c0.277,0.228,0.434,0.491,0.471,0.79h1.12
					c-0.06-0.605-0.323-1.09-0.79-1.456s-1.065-0.549-1.797-0.549c-0.508,0-0.957,0.09-1.35,0.269s-0.696,0.433-0.913,0.761
					c-0.216,0.329-0.325,0.706-0.325,1.131c0,0.485,0.111,0.872,0.331,1.159c0.22,0.288,0.485,0.499,0.795,0.633
					s0.723,0.269,1.237,0.403c0.418,0.112,0.751,0.216,0.997,0.313c0.247,0.097,0.452,0.239,0.616,0.426s0.246,0.429,0.246,0.728
					c0,0.38-0.14,0.692-0.42,0.935c-0.279,0.243-0.662,0.364-1.148,0.364c-0.508,0-0.894-0.125-1.158-0.375
					c-0.266-0.25-0.416-0.558-0.454-0.924h-1.087c0.008,0.425,0.127,0.801,0.359,1.125c0.23,0.325,0.551,0.579,0.957,0.762
					c0.407,0.183,0.868,0.274,1.383,0.274c0.538,0,1.005-0.104,1.4-0.314c0.396-0.209,0.695-0.481,0.896-0.817
					s0.303-0.694,0.303-1.075c0-0.493-0.112-0.883-0.336-1.17C166.308,77.658,166.04,77.446,165.726,77.307z"/>
				<path fill="#040000" d="M182.492,73.858c-0.598-0.34-1.262-0.51-1.994-0.51c-0.724,0-1.385,0.17-1.981,0.51
					c-0.598,0.34-1.069,0.814-1.417,1.422s-0.521,1.293-0.521,2.055s0.174,1.447,0.521,2.055s0.819,1.083,1.417,1.422
					c0.597,0.34,1.258,0.51,1.981,0.51c0.732,0,1.396-0.17,1.994-0.51s1.068-0.812,1.412-1.417c0.343-0.604,0.515-1.292,0.515-2.061
					s-0.172-1.456-0.515-2.061C183.56,74.67,183.089,74.198,182.492,73.858z M183.001,78.971c-0.25,0.47-0.594,0.833-1.03,1.086
					s-0.928,0.38-1.474,0.38c-0.545,0-1.035-0.126-1.473-0.38c-0.436-0.254-0.779-0.616-1.029-1.086
					c-0.251-0.471-0.375-1.016-0.375-1.635c0-0.627,0.124-1.174,0.375-1.641c0.25-0.466,0.592-0.827,1.024-1.081
					s0.926-0.381,1.478-0.381c0.553,0,1.046,0.127,1.479,0.381c0.434,0.254,0.775,0.614,1.025,1.081
					c0.25,0.467,0.375,1.014,0.375,1.641C183.376,77.955,183.251,78.5,183.001,78.971z"/>
				<path fill="#040000" d="M193.328,77.156c0.311-0.411,0.465-0.885,0.465-1.422c0-0.44-0.101-0.833-0.303-1.176
					c-0.201-0.343-0.506-0.616-0.912-0.817c-0.407-0.202-0.906-0.303-1.496-0.303h-2.52v7.807h1.02v-3.192h1.232l1.858,3.192h1.221
					l-1.96-3.271C192.553,77.839,193.017,77.567,193.328,77.156z M189.582,77.234v-2.957h1.5c0.561,0,0.977,0.127,1.25,0.381
					c0.271,0.254,0.408,0.612,0.408,1.075c0,0.456-0.139,0.819-0.414,1.092c-0.277,0.273-0.691,0.409-1.244,0.409H189.582z"/>
				<polygon fill="#040000" points="197.69,74.267 199.83,74.267 199.83,81.244 200.848,81.244 200.848,74.267 202.976,74.267 
					202.976,73.438 197.69,73.438 				"/>
				<path fill="#040000" d="M212.564,73.858c-0.598-0.34-1.262-0.51-1.994-0.51c-0.725,0-1.385,0.17-1.982,0.51
					s-1.069,0.814-1.416,1.422c-0.348,0.608-0.521,1.293-0.521,2.055s0.174,1.447,0.521,2.055c0.347,0.608,0.818,1.083,1.416,1.422
					s1.258,0.51,1.982,0.51c0.732,0,1.396-0.17,1.994-0.51s1.067-0.812,1.411-1.417c0.343-0.604,0.515-1.292,0.515-2.061
					s-0.172-1.456-0.515-2.061C213.631,74.67,213.162,74.198,212.564,73.858z M213.074,78.971c-0.25,0.47-0.594,0.833-1.031,1.086
					c-0.437,0.254-0.928,0.38-1.473,0.38s-1.035-0.126-1.473-0.38c-0.437-0.254-0.78-0.616-1.03-1.086
					c-0.251-0.471-0.375-1.016-0.375-1.635c0-0.627,0.124-1.174,0.375-1.641c0.25-0.466,0.592-0.827,1.024-1.081
					c0.434-0.254,0.926-0.381,1.479-0.381s1.045,0.127,1.479,0.381s0.775,0.614,1.025,1.081c0.25,0.467,0.375,1.014,0.375,1.641
					C213.449,77.955,213.324,78.5,213.074,78.971z"/>
				<path fill="#040000" d="M221.154,73.438h-2.52v7.807h1.02v-3.259h1.5c0.911,0,1.588-0.214,2.033-0.644
					c0.443-0.429,0.666-0.969,0.666-1.618c0-0.672-0.229-1.221-0.689-1.646C222.705,73.65,222.035,73.438,221.154,73.438z
					 M222.408,76.775c-0.268,0.247-0.687,0.37-1.254,0.37h-1.5v-2.867h1.5c1.105,0,1.658,0.481,1.658,1.445
					C222.812,76.178,222.677,76.529,222.408,76.775z"/>
				<polygon fill="#040000" points="227.918,81.244 232.119,81.244 232.119,80.404 228.938,80.404 228.938,77.716 231.783,77.716 
					231.783,76.876 228.938,76.876 228.938,74.267 232.119,74.267 232.119,73.427 227.918,73.427 				"/>
				<polygon fill="#040000" points="230.999,70.862 228.613,72.262 228.613,73.023 230.999,71.747 				"/>
				<path fill="#040000" d="M241.107,73.914c-0.624-0.317-1.361-0.476-2.213-0.476h-2.43v7.807h2.43
					c0.852,0,1.589-0.155,2.213-0.465c0.623-0.31,1.101-0.758,1.434-1.344c0.332-0.586,0.498-1.279,0.498-2.078
					s-0.166-1.494-0.498-2.083C242.208,74.685,241.73,74.231,241.107,73.914z M241.202,79.604c-0.53,0.534-1.3,0.801-2.308,0.801
					h-1.41v-6.138h1.41c1.001,0,1.768,0.272,2.302,0.817c0.534,0.545,0.801,1.303,0.801,2.274
					C241.997,78.321,241.732,79.07,241.202,79.604z"/>
				<rect x="247.182" y="73.438" fill="#040000" width="1.02" height="7.807"/>
				<path fill="#040000" d="M254.787,74.614c0.434-0.254,0.922-0.381,1.468-0.381c0.567,0,1.054,0.127,1.462,0.381
					c0.406,0.254,0.719,0.616,0.935,1.086h1.221c-0.291-0.754-0.754-1.336-1.389-1.747s-1.378-0.616-2.229-0.616
					c-0.725,0-1.384,0.172-1.978,0.515c-0.594,0.344-1.062,0.82-1.405,1.428c-0.343,0.608-0.515,1.293-0.515,2.055
					s0.172,1.445,0.515,2.049c0.344,0.605,0.812,1.077,1.405,1.417s1.253,0.51,1.978,0.51c0.851,0,1.594-0.204,2.229-0.61
					c0.635-0.407,1.098-0.984,1.389-1.73h-1.221c-0.216,0.47-0.528,0.831-0.935,1.081c-0.408,0.25-0.895,0.375-1.462,0.375
					c-0.546,0-1.034-0.127-1.468-0.381c-0.433-0.254-0.772-0.614-1.02-1.081c-0.246-0.466-0.369-1.01-0.369-1.629
					c0-0.627,0.123-1.174,0.369-1.641C254.014,75.228,254.354,74.868,254.787,74.614z"/>
				<path fill="#040000" d="M269.716,73.858c-0.598-0.34-1.262-0.51-1.994-0.51c-0.724,0-1.385,0.17-1.981,0.51
					c-0.598,0.34-1.069,0.814-1.417,1.422s-0.521,1.293-0.521,2.055s0.174,1.447,0.521,2.055s0.819,1.083,1.417,1.422
					c0.597,0.34,1.258,0.51,1.981,0.51c0.732,0,1.396-0.17,1.994-0.51s1.068-0.812,1.412-1.417c0.343-0.604,0.515-1.292,0.515-2.061
					s-0.172-1.456-0.515-2.061C270.785,74.67,270.314,74.198,269.716,73.858z M270.226,78.971c-0.25,0.47-0.594,0.833-1.03,1.086
					s-0.928,0.38-1.474,0.38c-0.545,0-1.035-0.126-1.473-0.38c-0.436-0.254-0.779-0.616-1.029-1.086
					c-0.251-0.471-0.375-1.016-0.375-1.635c0-0.627,0.124-1.174,0.375-1.641c0.25-0.466,0.592-0.827,1.024-1.081
					s0.926-0.381,1.478-0.381c0.553,0,1.046,0.127,1.479,0.381c0.434,0.254,0.775,0.614,1.025,1.081
					c0.25,0.467,0.375,1.014,0.375,1.641C270.601,77.955,270.476,78.5,270.226,78.971z"/>
				<path fill="#040000" d="M280.525,77.946c-0.225-0.288-0.493-0.5-0.807-0.639c-0.314-0.138-0.729-0.278-1.244-0.42
					c-0.425-0.119-0.756-0.226-0.99-0.319c-0.235-0.093-0.434-0.23-0.594-0.409s-0.241-0.41-0.241-0.694
					c0-0.396,0.135-0.704,0.403-0.924c0.27-0.22,0.616-0.331,1.041-0.331c0.456,0,0.822,0.114,1.098,0.342
					c0.277,0.228,0.434,0.491,0.471,0.79h1.12c-0.06-0.605-0.323-1.09-0.79-1.456s-1.065-0.549-1.797-0.549
					c-0.508,0-0.957,0.09-1.35,0.269s-0.696,0.433-0.913,0.761c-0.216,0.329-0.325,0.706-0.325,1.131
					c0,0.485,0.111,0.872,0.331,1.159c0.22,0.288,0.485,0.499,0.795,0.633s0.723,0.269,1.237,0.403
					c0.418,0.112,0.751,0.216,0.997,0.313c0.247,0.097,0.452,0.239,0.616,0.426s0.246,0.429,0.246,0.728
					c0,0.38-0.14,0.692-0.42,0.935c-0.279,0.243-0.662,0.364-1.148,0.364c-0.508,0-0.894-0.125-1.158-0.375
					c-0.266-0.25-0.416-0.558-0.454-0.924h-1.087c0.008,0.425,0.127,0.801,0.359,1.125c0.23,0.325,0.551,0.579,0.957,0.762
					c0.407,0.183,0.868,0.274,1.383,0.274c0.538,0,1.005-0.104,1.4-0.314c0.396-0.209,0.695-0.481,0.896-0.817
					s0.303-0.694,0.303-1.075C280.861,78.624,280.749,78.233,280.525,77.946z"/>
			</g>
		</g>
	</g>
</g>
<polyline fill="none" stroke="#2776BB" stroke-miterlimit="10" points="116.154,90.5 0.5,90.5 0.5,0.5 27.069,0.5 "/>
<path fill="none" stroke="#000000" stroke-width="2" stroke-miterlimit="10" d="M80.32,4.5"/>
<path fill="none" stroke="#000000" stroke-width="2" stroke-miterlimit="10" d="M72.653,4.5"/>
<polyline fill="none" stroke="#6AB82D" stroke-miterlimit="10" points="181.499,0.5 297.153,0.5 297.153,90.5 270.583,90.5 "/>
<g>
</g>
<g>
</g>
<g>
</g>
<g>
</g>
<g>
</g>
<g>
</g>
</svg>
