<?xml version="1.0" encoding="utf-8"?>
<!-- Generator: Adobe Illustrator 16.0.0, SVG Export Plug-In . SVG Version: 6.00 Build 0)  -->
<!DOCTYPE svg PUBLIC "-//W3C//DTD SVG 1.1//EN" "http://www.w3.org/Graphics/SVG/1.1/DTD/svg11.dtd">
<svg version="1.1" id="레이어_1" xmlns="http://www.w3.org/2000/svg" xmlns:xlink="http://www.w3.org/1999/xlink" x="0px"
	 y="0px" width="350.72px" height="304.5px" viewBox="0 0 350.72 304.5" enable-background="new 0 0 350.72 304.5"
	 xml:space="preserve">
<path fill="#233774" d="M92.541,200.882v39.838c-9.3-0.701-18.167-3.063-26.362-6.821c-10.366-4.748-19.706-11.73-27.534-20.391
	c-7.874-8.717-14.226-19.139-18.565-30.734c-4.181-11.17-6.486-23.455-6.486-36.398c0-6.646,0.606-13.083,1.758-19.258
	c1.197-6.384,2.978-12.556,5.283-18.457c1.941-4.97,4.25-9.715,6.887-14.188c2.653-4.509,5.65-8.747,8.937-12.67l0.266-0.349
	c0.072-0.091,0.046-0.067,0.072-0.091c0.085-0.111,0-0.02,0.056-0.073h0.023l0.472-0.528l0.079-0.106
	c0.61-0.695,1.02-1.159,1.243-1.407c0.092-0.104,0.541-0.582,1.289-1.377l0.082-0.104l57.619-63.788
	c0.15-0.169,0.312-0.279,0.466-0.349c0.092-0.038,0.213-0.058,0.351-0.051h0.791c0.131-0.007,0.249,0.006,0.351,0.051
	c0.154,0.07,0.314,0.18,0.466,0.349l57.615,63.785l0.079,0.104c0.757,0.798,1.196,1.271,1.292,1.377
	c0.22,0.247,0.63,0.712,1.236,1.406l0.082,0.107l0.469,0.527h0.029c0.056,0.064-0.039-0.029,0.056,0.074
	c0.026,0.029,0,0.003,0.069,0.09l0.266,0.35c3.289,3.922,6.28,8.16,8.933,12.67c2.637,4.473,4.945,9.219,6.891,14.188
	c2.309,5.901,4.089,12.073,5.283,18.456c1.15,6.172,1.761,12.612,1.761,19.259c0,12.94-2.313,25.237-6.49,36.397
	c-4.339,11.596-10.688,22.021-18.558,30.734c-7.831,8.668-17.171,15.64-27.537,20.395c-7.91,3.627-16.453,5.956-25.412,6.743V151.11
	l53.08-27.467c3.332-1.718,4.637-5.806,2.922-9.136c-1.722-3.332-5.808-4.643-9.137-2.922l-46.872,24.249V63.004
	c0-3.754-3.043-6.801-6.795-6.801s-6.795,3.047-6.795,6.801v36.002L64.815,75.197c-2.844-2.438-7.123-2.103-9.554,0.746
	c-2.439,2.847-2.102,7.128,0.745,9.56l36.549,31.382v66.298l-42.6-35.937c-2.863-2.409-7.126-2.035-9.53,0.824
	c-2.407,2.861-2.033,7.13,0.826,9.536l51.31,43.275H92.541z M92.541,304.498h13.59h83.248V289.36h-83.248v-35.07
	c10.904-0.826,21.353-3.62,31.043-8.061c12.049-5.529,22.884-13.609,31.944-23.638c9.019-9.977,16.272-21.887,21.215-35.094
	c4.762-12.721,7.385-26.615,7.385-41.126c0-7.378-0.701-14.654-2.029-21.758c-1.354-7.252-3.375-14.25-5.969-20.904
	c-2.207-5.65-4.837-11.055-7.844-16.154c-3.03-5.152-6.448-9.991-10.203-14.471l-0.229-0.285c-0.102-0.118-0.275-0.316-0.521-0.595
	l0.014-0.014l-0.473-0.527l-0.006,0.006c-0.292-0.334-0.751-0.843-1.364-1.526c-0.813-0.894-1.282-1.415-1.45-1.589l-0.006,0.007
	L110.11,4.885c-1.525-1.686-3.319-2.935-5.251-3.749c-1.941-0.82-3.98-1.198-6.001-1.128c-2.021-0.064-4.06,0.308-6.001,1.128
	c-1.919,0.813-3.713,2.06-5.244,3.749l-57.53,63.683l-0.007-0.007c-0.17,0.182-0.639,0.695-1.453,1.589
	c-0.613,0.684-1.069,1.191-1.361,1.526l-0.007-0.007l-0.472,0.528l0.013,0.013c-0.249,0.272-0.423,0.471-0.518,0.596l-0.229,0.285
	c-3.751,4.479-7.166,9.318-10.206,14.471c-3.01,5.1-5.634,10.497-7.841,16.154c-2.598,6.65-4.614,13.646-5.972,20.904
	C0.699,131.721,0,138.998,0,146.375c0,14.518,2.63,28.406,7.385,41.127c4.939,13.209,12.199,25.113,21.214,35.093
	c9.058,10.025,19.89,18.112,31.941,23.638c9.973,4.575,20.742,7.396,31.994,8.127v18.27v16.734H9.287v15.138h83.251h0.003V304.498z"
	/>
<path fill="#233774" d="M229.447,167.878l-0.01-0.095C229.44,167.819,229.44,167.845,229.447,167.878z M229.906,169.636
	c-0.01-0.033-0.022-0.06-0.036-0.089C229.883,169.58,229.896,169.603,229.906,169.636z M230.064,169.99
	c-0.053-0.102-0.096-0.197-0.132-0.299C229.971,169.793,230.017,169.889,230.064,169.99z M231.238,171.698l-0.063-0.068
	C231.198,171.656,231.218,171.676,231.238,171.698z M231.588,172.043l-0.075-0.072C231.539,171.997,231.562,172.017,231.588,172.043
	z M231.948,172.352c-0.022-0.021-0.049-0.047-0.075-0.066C231.897,172.312,231.919,172.331,231.948,172.352z M232.211,172.548
	c-0.026-0.017-0.056-0.036-0.079-0.063C232.158,172.509,232.189,172.525,232.211,172.548z M232.359,172.656
	c-0.036-0.023-0.068-0.05-0.102-0.076C232.293,172.606,232.325,172.633,232.359,172.656z M232.484,172.738
	c-0.033-0.02-0.069-0.046-0.096-0.072C232.418,172.692,232.454,172.712,232.484,172.738z M232.795,172.928
	c-0.033-0.016-0.065-0.039-0.092-0.059C232.733,172.889,232.762,172.912,232.795,172.928z M232.939,173.007
	c-0.042-0.013-0.071-0.036-0.104-0.056C232.87,172.971,232.897,172.994,232.939,173.007z M233.08,173.082
	c-0.039-0.02-0.072-0.036-0.104-0.056C233.011,173.046,233.047,173.066,233.08,173.082z M235.244,173.768
	c-0.029-0.006-0.056-0.006-0.085-0.013C235.189,173.762,235.215,173.762,235.244,173.768z M235.415,173.791
	c-0.029-0.007-0.063-0.007-0.096-0.014C235.35,173.784,235.382,173.784,235.415,173.791z M235.589,173.807
	c-0.036-0.003-0.072-0.003-0.108-0.01C235.517,173.804,235.556,173.804,235.589,173.807z M235.753,173.82
	c-0.039,0-0.072-0.007-0.105-0.007C235.684,173.813,235.714,173.82,235.753,173.82z M235.94,173.827c-0.036,0-0.082,0-0.118-0.007
	C235.855,173.82,235.904,173.827,235.94,173.827z M236.114,173.833c-0.042,0-0.078,0-0.124,0
	C236.031,173.833,236.072,173.833,236.114,173.833z M290.079,289.36h60.643v15.138h-60.643h-60.643v-136.83l0.003,0.039
	c-0.013-0.164-0.026-0.324-0.032-0.491c-0.905-33.521,7.923-60.029,26.491-79.516c18.377-19.29,46.052-31.348,83.047-36.172
	c3.709-0.482,7.11,2.133,7.596,5.844c0.052,0.38,0.068,0.746,0.059,1.118c0.104,32.869-7.809,58.79-23.746,77.771
	c-16.036,19.096-34.23,29.566-65.909,33.978c-3.706,0.518-7.13-2.076-7.645-5.785c-0.512-3.712,2.079-7.136,5.788-7.654
	c28.262-3.93,43.626-12.829,57.413-29.243c12.599-15,19.407-35.476,20.43-61.42c-29.888,4.966-52.293,15.28-67.197,30.924
	c-11.098,11.654-18.148,26.442-21.156,44.369v147.937h45.519L290.079,289.36z"/>
</svg>
